<?xml version="1.0" encoding="utf-8"?>
<svg version="1.1" id="Layer_1" xmlns="http://www.w3.org/2000/svg" x="0px" y="0px" width="100%" viewBox="0 0 168 168" enable-background="new 0 0 168 168">
  <defs>
    <filter id="soft-glow">
      <feGaussianBlur stdDeviation="2" result="blur"/>
      <feMerge>
        <feMergeNode in="blur"/>
        <feMergeNode in="SourceGraphic"/>
      </feMerge>
    </filter>
  </defs>
  <path
    fill="#677ce7"
    stroke="#ffaa00"
    stroke-width="1"
    filter="url(#soft-glow)"
    d="M109.792274,69.790550 C97.275131,84.683449 84.736900,99.558701 72.248306,114.475494 C64.018219,124.305817 55.604382,133.999420 47.787121,144.150299 C44.376129,148.579559 40.804974,150.823212 35.270733,149.910202 C33.656422,149.643875 31.960987,149.869263 29.923567,149.869263 C32.508644,141.562225 35.189869,133.600677 37.459103,125.523392 C42.855431,106.315262 45.341099,86.743912 44.023518,66.777672 C43.827099,63.801170 43.443542,60.792141 42.724426,57.903236 C40.350056,48.364697 35.939857,40.764824 24.666136,40.535789 C24.872299,33.083252 28.546406,29.288031 35.554707,29.018360 C50.637711,28.437988 62.076042,38.502739 64.761803,55.358730 C67.554001,72.882767 65.545143,90.024002 59.947521,107.295425 C61.333458,105.904449 62.830715,104.606918 64.088577,103.108429 C82.180679,81.555634 100.520859,60.200794 118.132332,38.261292 C123.220184,31.923092 128.499039,29.713034 136.307175,31.723255 C134.095566,40.968071 131.799530,50.441044 129.566360,59.928818 C125.854141,75.700424 123.621361,91.655411 124.022141,107.895973 C124.112122,111.542465 124.439957,115.214073 125.036774,118.811325 C126.909386,130.098358 133.400055,135.971848 144.839233,137.014389 C145.637512,137.087143 146.431549,137.206161 147.215347,137.302170 C146.677505,144.718002 142.957413,149.363052 136.275772,151.189331 C118.969566,155.919586 104.740692,144.814835 102.989639,125.256798 C101.325851,106.673454 105.028267,88.840889 110.666763,70.630096 C110.828613,69.758842 110.767807,69.497345 110.706993,69.235847 C110.402084,69.420746 110.097183,69.605644 109.792274,69.790550 z" />
</svg>
